<?xml version="1.0" encoding="UTF-8"?>
<svg width="600px" height="600px" viewBox="0 0 600 600" version="1.1" xmlns="http://www.w3.org/2000/svg" xmlns:xlink="http://www.w3.org/1999/xlink">
    <title>Logo no background</title>
    <g id="Logo-no-background" stroke="none" stroke-width="1" fill="none" fill-rule="evenodd">
        <path d="M158.161792,351 C160.230459,351 162.134792,351.488167 163.874792,352.4645 C165.614792,353.440833 166.982626,354.789333 167.978292,356.51 C168.973959,358.230667 169.471792,360.101167 169.471792,362.1215 C169.471792,364.141833 168.978792,366.012333 167.992792,367.733 C167.006792,369.453667 165.653459,370.807 163.932792,371.793 C162.212126,372.779 160.341626,373.272 158.321292,373.272 C156.300959,373.272 154.420792,372.783833 152.680792,371.8075 C150.940792,370.831167 149.577792,369.4875 148.591792,367.7765 C147.605792,366.0655 147.112792,364.199833 147.112792,362.1795 C147.112792,360.159167 147.605792,358.283833 148.591792,356.5535 C149.577792,354.823167 150.926292,353.465 152.637292,352.479 C154.348292,351.493 156.189792,351 158.161792,351 Z M90.335717,351.522 L90.335717,364.282 L90.3364034,364.591991 C90.3418945,365.804843 90.3803324,366.692346 90.451717,367.2545 C90.5290503,367.8635 90.7513836,368.453167 91.118717,369.0235 C91.4860503,369.593833 92.0128836,370.048167 92.699217,370.3865 C93.3855503,370.724833 94.163717,370.894 95.033717,370.894 C96.077717,370.894 96.9815503,370.5895 97.745217,369.9805 C98.5088836,369.3715 99.0018836,368.665833 99.224217,367.8635 C99.4465503,367.061167 99.557717,365.867333 99.557717,364.282 L99.557717,364.282 L99.557717,351.522 L102.022717,351.522 L102.022717,364.282 L102.019817,364.704562 C101.99275,366.645543 101.776217,368.152856 101.370217,369.2265 C100.935217,370.376833 100.161884,371.338667 99.050217,372.112 C97.9385503,372.885333 96.6383836,373.272 95.149717,373.272 C93.9703836,373.272 92.9070503,373.0835 91.959717,372.7065 C91.0123836,372.3295 90.2245503,371.797833 89.596217,371.1115 C88.9678836,370.425167 88.5183836,369.6615 88.247717,368.8205 C87.9770503,367.9795 87.841717,366.466667 87.841717,364.282 L87.841717,364.282 L87.841717,351.522 L90.335717,351.522 Z M56.641,351 C57.8396667,351 58.8836667,351.3045 59.773,351.9135 C60.6623333,352.5225 61.5323333,353.426333 62.383,354.625 L62.383,354.625 L60.382,356.191 L60.1910833,355.937149 C59.4999167,355.032578 58.9062222,354.416361 58.41,354.0885 C57.8686667,353.730833 57.2355,353.552 56.5105,353.552 C55.7855,353.552 55.1765,353.784 54.6835,354.248 C54.1905,354.712 53.944,355.3065 53.944,356.0315 C53.944,356.7565 54.176,357.389667 54.64,357.931 C55.104,358.472333 56.1721667,359.356833 57.8445,360.5845 C59.5168333,361.812167 60.7396667,362.967333 61.513,364.05 C62.2863333,365.132667 62.673,366.273333 62.673,367.472 C62.673,369.038 62.0688333,370.396167 60.8605,371.5465 C59.6521667,372.696833 58.2456667,373.272 56.641,373.272 C53.8183333,373.272 51.6046667,371.696333 50,368.545 L50,368.545 L52.117,367.327 L52.2685424,367.602106 C53.4868208,369.758035 54.84764,370.836 56.351,370.836 C57.3563333,370.836 58.2166667,370.517 58.932,369.879 C59.6473333,369.241 60.005,368.496667 60.005,367.646 C60.005,366.795333 59.7053333,365.988167 59.106,365.2245 C58.5066667,364.460833 57.4723333,363.523167 56.003,362.4115 C54.5336667,361.299833 53.5235,360.454 52.9725,359.874 C52.4215,359.294 52.0203333,358.675333 51.769,358.018 C51.5176667,357.360667 51.392,356.703333 51.392,356.046 C51.392,354.634667 51.8801667,353.440833 52.8565,352.4645 C53.8328333,351.488167 55.0943333,351 56.641,351 Z M139.284434,351.522 L139.284434,372.75 L136.790434,372.75 L136.790434,351.522 L139.284434,351.522 Z M115.651075,351.522 L116.10304,351.523704 C118.925997,351.545285 120.998675,351.771883 122.321075,352.2035 C123.713075,352.657833 124.916575,353.3635 125.931575,354.3205 C126.946575,355.2775 127.724742,356.442333 128.266075,357.815 C128.807409,359.187667 129.078075,360.773 129.078075,362.571 C129.078075,364.369 128.676909,366.0655 127.874575,367.6605 C127.072242,369.2555 125.931575,370.5025 124.452575,371.4015 C122.973575,372.3005 120.813075,372.75 117.971075,372.75 L117.971075,372.75 L111.127075,372.75 L111.127075,351.522 L115.651075,351.522 Z M80.7963585,351.522 L80.7963585,353.958 L76.1563585,353.958 L76.1563585,372.75 L73.6333585,372.75 L73.6333585,353.958 L68.9643585,353.958 L68.9643585,351.522 L80.7963585,351.522 Z M158.248792,353.436 C155.812792,353.436 153.777959,354.281833 152.144292,355.9735 C150.510626,357.665167 149.693792,359.724167 149.693792,362.1505 C149.693792,364.576833 150.534792,366.631 152.216792,368.313 C153.898792,369.995 155.909459,370.836 158.248792,370.836 C160.665459,370.836 162.709959,370.014333 164.382292,368.371 C166.054626,366.727667 166.890792,364.668667 166.890792,362.194 C166.890792,359.719333 166.044959,357.641 164.353292,355.959 C162.661626,354.277 160.626792,353.436 158.248792,353.436 Z M114.810075,353.958 L113.534075,353.958 L113.534075,370.372 L115.738075,370.372 C118.193409,370.372 119.981742,370.246333 121.103075,369.995 C122.224409,369.743667 123.200742,369.260333 124.032075,368.545 C124.863409,367.829667 125.496575,366.954833 125.931575,365.9205 C126.366575,364.886167 126.584075,363.692333 126.584075,362.339 C126.584075,360.985667 126.327909,359.733833 125.815575,358.5835 C125.303242,357.433167 124.573409,356.4955 123.626075,355.7705 C122.678742,355.0455 121.567075,354.562167 120.291075,354.3205 C119.015075,354.078833 117.188075,353.958 114.810075,353.958 L114.810075,353.958 Z M550,333 L550,337 L50,337 L50,333 L550,333 Z M198.520304,262.107664 C198.599104,262.584157 197.871962,265.071813 198.021556,267.86448 C198.172871,270.68929 199.207202,273.826253 200.401729,275.523986 C202.777192,278.900133 207.469806,282.481141 208.869758,284.224481 C211.028019,286.912134 210.687398,288.361352 210.687398,288.972286 C210.687398,289.779635 209.555354,287.749887 208.033861,286.791264 C206.708125,285.955978 204.916752,285.532492 205.055066,285.965131 C205.19338,286.397771 207.373119,290.472694 208.578018,291.579456 C209.782917,292.686219 211.762846,292.287952 212.261752,292.584847 C212.50161,292.727585 214.432429,294.433705 216.41018,296.312943 L216.8849,296.766573 C218.859638,298.664612 220.749785,300.624549 220.911313,301.25612 C221.247291,302.569786 219.285427,304.671064 217.756746,305.103118 C216.228065,305.535171 213.632242,303.775224 213.632242,303.962746 C213.632242,304.037897 214.091067,304.315911 214.219881,304.77427 C214.412488,305.459627 214.098065,306.391306 212.261752,306.391306 C209.197335,306.391306 204.560076,301.439028 198.021556,301.59498 C191.483036,301.750931 188.416971,303.229345 185.113847,307.038816 C181.810723,310.848288 184.595202,320.474868 183.180072,318.807942 C182.425103,317.918639 180.437994,314.58288 178.96709,310.241541 C177.496185,305.900202 178.544735,300.472297 177.750162,295.74194 C176.897265,290.664357 174.816562,288.492684 174.101362,287.147585 C172.71987,284.54937 168.194601,280.996961 167.128288,280.996961 C166.061976,280.996961 171.768282,278.373199 179.580625,278.74444 C187.392968,279.115681 192.062446,282.233746 191.843756,281.960583 C191.725813,281.813261 190.152066,280.598366 188.154214,279.459879 C186.447669,278.487396 184.383854,277.599507 183.180072,277.162837 C178.8922,275.607418 174.828147,275.80627 175.00051,275.523986 C175.172874,275.241702 179.163745,273.99876 183.180072,274.256165 C186.175562,274.448144 188.849975,275.542388 189.467899,275.202266 C190.043031,274.885697 189.707051,273.876733 190.138039,272.202451 C190.706957,269.99234 192.602951,267.461141 193.419156,266.229701 C195.976577,262.371225 198.451229,261.68998 198.520304,262.107664 Z M346.609756,268 L360.878049,302.530667 L375.390244,268 L381,268 L361.54878,314 L360.146341,314 L341,268 L346.609756,268 Z M70.4305085,268 L79.0338983,299.770667 L91.2372881,268 L92.7016949,268 L104.783051,299.832 L113.569492,268 L119,268 L106.186441,314 L104.661017,314 L91.9694915,280.450667 L79.0338983,314 L77.5694915,314 L65,268 L70.4305085,268 Z M522.624714,267 C525.083905,267 527.225782,267.642578 529.050343,268.927734 C530.76087,270.132568 532.436535,271.884239 534.077338,274.182747 L534.405034,274.64974 L530.299771,277.954427 L530.037546,277.593945 C528.564087,275.589209 527.302907,274.230421 526.254005,273.517578 C525.143402,272.762804 523.844394,272.385417 522.356979,272.385417 C520.869565,272.385417 519.620137,272.875 518.608696,273.854167 C517.597254,274.833333 517.091533,276.087891 517.091533,277.617839 C517.091533,279.147786 517.567506,280.483941 518.519451,281.626302 C519.471396,282.768663 521.662853,284.6352 525.093822,287.225911 C528.52479,289.816623 531.033562,292.25434 532.620137,294.539062 C534.206712,296.823785 535,299.230903 535,301.760417 C535,305.065104 533.760488,307.931207 531.281465,310.358724 C528.802441,312.786241 525.916857,314 522.624714,314 C516.947264,314 512.470725,310.80403 509.195097,304.412091 L509,304.02474 L513.343249,301.454427 L513.537208,301.820046 C516.066407,306.512932 518.897254,308.859375 522.029748,308.859375 C524.092296,308.859375 525.857361,308.186198 527.324943,306.839844 C528.792525,305.49349 529.526316,303.922743 529.526316,302.127604 C529.526316,300.332465 528.911518,298.629123 527.681922,297.017578 C526.452326,295.406033 524.330282,293.4273 521.315789,291.08138 C518.301297,288.73546 516.228833,286.950521 515.098398,285.726562 C513.967963,284.502604 513.144928,283.197049 512.629291,281.809896 C512.113654,280.422743 511.855835,279.03559 511.855835,277.648437 C511.855835,274.670139 512.857361,272.150825 514.860412,270.090495 C516.863463,268.030165 519.451564,267 522.624714,267 Z M276.272727,268 L276.272727,307.897541 L293,307.897541 L293,313 L271,313 L271,268 L276.272727,268 Z M459,268 L459,273.22541 L439.046948,273.22541 L439.046948,286.135246 L458.823944,286.135246 L458.823944,291.29918 L439.046948,291.29918 L439.046948,307.77459 L458.823944,307.77459 L458.823944,313 L434,313 L434,268 L459,268 Z M366.74182,232.671262 C368.976899,232.671262 370.926545,233.601626 372.59076,235.462354 L372.59076,235.462354 L372.59076,233.086957 L375,233.086957 L375,245.468717 L374.997902,245.86307 C374.976926,247.802359 374.798625,249.254507 374.463001,250.219512 C374.105001,251.248851 373.563164,252.11983 372.837489,252.83245 C372.111814,253.545069 371.241004,254.084482 370.22506,254.450689 C369.209115,254.816896 368.091576,255 366.872442,255 C362.750609,255 360.00272,253.218452 358.628776,249.655355 L358.628776,249.655355 L361.183151,249.655355 L361.315963,249.888327 C362.450277,251.79169 364.27341,252.743372 366.785361,252.743372 C367.985143,252.743372 369.059142,252.505832 370.007357,252.030753 C370.955572,251.555673 371.623193,250.922234 372.01022,250.130435 C372.397246,249.338636 372.59076,248.121244 372.59076,246.478261 L372.59076,246.478261 L372.59076,246.329799 L372.359705,246.584857 C371.652607,247.331326 370.820113,247.909438 369.862222,248.319194 C368.797899,248.774479 367.694873,249.002121 366.553145,249.002121 C364.269688,249.002121 362.358744,248.200424 360.820314,246.597031 C359.281883,244.993637 358.522343,243.103217 358.541695,240.925769 C358.522343,238.649346 359.325424,236.704489 360.950935,235.091198 C362.576447,233.477907 364.506742,232.671262 366.74182,232.671262 Z M263.936425,232.671262 C266.248909,232.671262 268.18888,233.631318 269.756338,235.551432 L269.756338,235.551432 L269.756338,233.086957 L272.107524,233.086957 L272.107524,249.269353 L269.756338,249.269353 L269.756338,246.893955 L269.530212,247.141486 C267.861096,248.916374 265.95296,249.803818 263.805804,249.803818 C261.56105,249.803818 259.64043,248.957582 258.043946,247.265111 C256.447461,245.572641 255.649219,243.553552 255.649219,241.207847 C255.649219,238.862142 256.452299,236.852952 258.058459,235.180276 C259.66462,233.5076 261.623942,232.671262 263.936425,232.671262 Z M318.431319,227 L318.431319,249.269353 L316.080133,249.269353 L316.080133,246.893955 L315.85398,247.141486 C314.184462,248.916374 312.271497,249.803818 310.115086,249.803818 C307.860656,249.803818 305.940036,248.962531 304.353227,247.279958 C302.766419,245.597384 301.973014,243.578296 301.973014,241.222694 C301.973014,238.867091 302.776094,236.852952 304.382254,235.180276 C305.988415,233.5076 307.947737,232.671262 310.260221,232.671262 C312.572704,232.671262 314.512675,233.631318 316.080133,235.551432 L316.080133,235.551432 L316.080133,227 L318.431319,227 Z M246.275143,227 L246.275143,233.086957 L249.410058,233.086957 L249.410058,235.224814 L246.275143,235.224814 L246.275143,246.567338 L246.277864,246.715569 C246.290564,247.043578 246.347711,247.246554 246.449305,247.324496 C246.565413,247.413574 246.855683,247.458112 247.320115,247.458112 L247.320115,247.458112 L248.71341,247.458112 L248.71341,249.566278 L248.412031,249.616132 C247.630333,249.741256 247.024469,249.803818 246.59444,249.803818 C245.665576,249.803818 244.978604,249.571227 244.533523,249.106045 C244.088443,248.640862 243.865903,247.903499 243.865903,246.893955 L243.865903,246.893955 L243.865903,235.224814 L241.137365,235.224814 L241.137365,233.086957 L243.865903,233.086957 L243.865903,227 L246.275143,227 Z M230.326453,232.671262 C231.710073,232.671262 233.175936,233.443266 234.724043,234.987275 L234.724043,234.987275 L233.185612,236.620361 L232.958557,236.409874 C231.904984,235.461474 230.935698,234.987275 230.050697,234.987275 C229.450806,234.987275 228.947671,235.180276 228.541293,235.566278 C228.134915,235.95228 227.931726,236.427359 227.931726,236.991516 C227.931726,237.555673 228.159104,238.050548 228.613861,238.47614 C229.068617,238.901732 229.876535,239.426299 231.037615,240.049841 C232.198694,240.673383 233.093693,241.361258 233.722611,242.113468 C234.35153,242.865677 234.665989,243.786144 234.665989,244.874867 C234.665989,246.260516 234.196719,247.42842 233.25818,248.378579 C232.31964,249.328738 231.163398,249.803818 229.789454,249.803818 C227.873672,249.803818 226.277188,248.972428 225,247.30965 L225,247.30965 L226.509404,245.587487 L226.705563,245.814008 C227.687491,246.910078 228.686428,247.458112 229.702373,247.458112 C230.437723,247.458112 231.066642,247.210675 231.589127,246.715801 C232.111613,246.220926 232.372856,245.641923 232.372856,244.978791 C232.372856,244.315659 232.135803,243.7614 231.661695,243.316013 C231.187587,242.870626 230.374832,242.351007 229.223428,241.757158 C228.072023,241.163309 227.201214,240.505125 226.610998,239.782609 C226.020783,239.060092 225.725675,238.109933 225.725675,236.932131 C225.725675,235.75433 226.146566,234.749735 226.988349,233.918346 C227.830132,233.086957 228.942833,232.671262 230.326453,232.671262 Z M329.024529,233.086957 L329.024529,249.269353 L326.615288,249.269353 L326.615288,233.086957 L329.024529,233.086957 Z M345.074813,232.671262 C346.216541,232.671262 347.251837,232.973135 348.180701,233.576882 C349.109565,234.180629 349.806213,235.012018 350.270645,236.07105 C350.735077,237.130081 350.967293,238.758218 350.967293,240.955461 L350.967293,240.955461 L350.967293,249.269353 L348.587079,249.269353 L348.587079,241.549311 L348.586115,241.22194 C348.576477,239.61843 348.494556,238.515111 348.34035,237.911983 C348.175863,237.268646 347.933972,236.724284 347.614675,236.278897 C347.295378,235.83351 346.889,235.501944 346.395541,235.284199 C345.902082,235.066455 345.302191,234.957582 344.595868,234.957582 C343.889544,234.957582 343.197734,235.135737 342.520438,235.492047 C341.843141,235.848356 341.262601,236.343231 340.778818,236.97667 C340.295035,237.61011 339.961224,238.283139 339.777387,238.995758 C339.593549,239.708378 339.50163,241.133616 339.50163,243.271474 L339.50163,243.271474 L339.50163,249.269353 L337.09239,249.269353 L337.09239,233.086957 L339.50163,233.086957 L339.50163,235.521739 L339.707727,235.27926 C341.231178,233.540595 343.020207,232.671262 345.074813,232.671262 Z M288.535159,232.671262 C289.676888,232.671262 290.712184,232.973135 291.641047,233.576882 C292.569911,234.180629 293.266559,235.012018 293.730991,236.07105 C294.195423,237.130081 294.427639,238.758218 294.427639,240.955461 L294.427639,240.955461 L294.427639,249.269353 L292.047425,249.269353 L292.047425,241.549311 L292.046462,241.22194 C292.036824,239.61843 291.954902,238.515111 291.800696,237.911983 C291.63621,237.268646 291.394318,236.724284 291.075021,236.278897 C290.755724,235.83351 290.349346,235.501944 289.855887,235.284199 C289.362428,235.066455 288.762537,234.957582 288.056214,234.957582 C287.34989,234.957582 286.65808,235.135737 285.980784,235.492047 C285.303487,235.848356 284.722947,236.343231 284.239164,236.97667 C283.755381,237.61011 283.421571,238.283139 283.237733,238.995758 C283.053895,239.708378 282.961976,241.133616 282.961976,243.271474 L282.961976,243.271474 L282.961976,249.269353 L280.552736,249.269353 L280.552736,233.086957 L282.961976,233.086957 L282.961976,235.521739 L283.168074,235.27926 C284.691524,233.540595 286.480553,232.671262 288.535159,232.671262 Z M263.965452,235.04666 C262.310914,235.04666 260.91278,235.665253 259.771052,236.902439 C258.629323,238.139625 258.058459,239.599505 258.058459,241.282078 C258.058459,242.964652 258.638999,244.424532 259.800079,245.661718 C260.961159,246.898904 262.354454,247.517497 263.979966,247.517497 C265.586126,247.517497 266.969746,246.923648 268.130826,245.735949 C269.291906,244.54825 269.872446,243.068575 269.872446,241.296925 C269.872446,239.525274 269.301581,238.04065 268.159853,236.843054 C267.018125,235.645458 265.619991,235.04666 263.965452,235.04666 Z M310.318275,235.04666 C308.625033,235.04666 307.212386,235.665253 306.080334,236.902439 C304.948281,238.139625 304.382254,239.594556 304.382254,241.267232 C304.382254,242.939908 304.962794,244.399788 306.123874,245.646872 C307.284954,246.893955 308.678249,247.517497 310.303761,247.517497 C311.832516,247.517497 313.196785,246.933545 314.396567,245.765642 C315.59635,244.597738 316.196241,243.118063 316.196241,241.326617 C316.196241,239.535171 315.63989,238.04065 314.527189,236.843054 C313.414487,235.645458 312.011516,235.04666 310.318275,235.04666 Z M366.930496,235.04666 C365.227579,235.04666 363.800418,235.645458 362.649014,236.843054 C361.49761,238.04065 360.921908,239.431248 360.921908,241.014846 C360.921908,242.598445 361.473421,243.939555 362.576447,245.038176 C363.679473,246.136797 365.09212,246.686108 366.814388,246.686108 C368.536656,246.686108 369.944465,246.146695 371.037815,245.067869 C372.131165,243.989042 372.677841,242.608342 372.677841,240.925769 C372.677841,239.2234 372.12149,237.817957 371.008788,236.709438 C369.896087,235.600919 368.536656,235.04666 366.930496,235.04666 Z M202,239 L202,243 L50,243 L50,239 L202,239 Z M550,239 L550,243 L398,243 L398,239 L550,239 Z M327.805395,227 C328.327881,227 328.768124,227.183104 329.126123,227.549311 C329.484123,227.915518 329.663123,228.360905 329.663123,228.885472 C329.663123,229.410039 329.484123,229.855426 329.126123,230.221633 C328.768124,230.58784 328.332719,230.770944 327.819909,230.770944 C327.307098,230.770944 326.871693,230.582891 326.513694,230.206787 C326.155694,229.830682 325.976694,229.390244 325.976694,228.885472 C325.976694,228.3807 326.155694,227.940262 326.513694,227.564157 C326.871693,227.188052 327.30226,227 327.805395,227 Z" id="Logo" fill="#FFFFFF" fill-rule="nonzero"></path>
    </g>
</svg>